<svg width="24" height="24" viewBox="0 0 24 24" fill="none" xmlns="http://www.w3.org/2000/svg">
<g clip-path="url(#clip0_103_4350)">
<path d="M5.58661 7.72107H0.768566C0.554734 7.72107 0.38147 7.89441 0.38147 8.10817V23.5865C0.38147 23.8003 0.554734 23.9736 0.768566 23.9736H5.58661C5.80044 23.9736 5.9737 23.8003 5.9737 23.5865V8.10817C5.9737 7.89441 5.80044 7.72107 5.58661 7.72107Z" fill="#C0C2C4"/>
<path d="M3.1793 0.0264282C1.42622 0.0264282 0 1.4511 0 3.20225C0 4.95417 1.42622 6.37938 3.1793 6.37938C4.93099 6.37938 6.35605 4.95409 6.35605 3.20225C6.35613 1.4511 4.93099 0.0264282 3.1793 0.0264282Z" fill="#C0C2C4"/>
<path d="M17.8416 7.33636C15.9065 7.33636 14.476 8.16824 13.6084 9.11345V8.10816C13.6084 7.8944 13.4351 7.72106 13.2213 7.72106H8.60719C8.39336 7.72106 8.22009 7.8944 8.22009 8.10816V23.5865C8.22009 23.8003 8.39336 23.9736 8.60719 23.9736H13.4147C13.6285 23.9736 13.8018 23.8003 13.8018 23.5865V15.9283C13.8018 13.3477 14.5028 12.3423 16.3017 12.3423C18.2608 12.3423 18.4165 13.954 18.4165 16.0611V23.5865C18.4165 23.8004 18.5898 23.9736 18.8036 23.9736H23.6129C23.8268 23.9736 24 23.8004 24 23.5865V15.0964C24 11.2591 23.2683 7.33636 17.8416 7.33636Z" fill="#C0C2C4"/>
</g>
<defs>
<clipPath id="clip0_103_4350">
<rect width="24" height="24" fill="white"/>
</clipPath>
</defs>
</svg>
